<svg width="37" height="42" viewBox="0 0 37 42" fill="none" xmlns="http://www.w3.org/2000/svg">
<path d="M35.864 38.152C34.4987 38.7067 33.0907 38.984 31.64 38.984C30.3173 38.984 29.1013 38.792 27.992 38.408C26.8827 38.0667 26.0293 37.7253 25.432 37.384C23.5547 39.6453 20.8027 40.9467 17.176 41.288C16.8347 41.3307 16.4933 41.352 16.152 41.352C15.8107 41.352 15.4693 41.352 15.128 41.352C12.4827 41.352 10.0507 40.8827 7.832 39.944C5.61333 39.048 3.82133 37.6827 2.456 35.848C1.13333 33.9707 0.472 31.6667 0.472 28.936C0.472 25.992 1.28267 23.6453 2.904 21.896C4.568 20.1467 7.04267 18.4827 10.328 16.904L7.064 15.816L0.664 12.616C1.73067 8.904 3.45867 6.10933 5.848 4.232C8.28 2.35466 11.032 1.26666 14.104 0.967999C14.488 0.925332 14.872 0.903999 15.256 0.903999C15.64 0.861333 16.0027 0.84 16.344 0.84C19.416 0.84 22.2107 1.416 24.728 2.568C27.2453 3.67733 29.2507 5.27733 30.744 7.368C32.2373 9.416 32.984 11.8267 32.984 14.6V26.76L36.888 28.68L35.864 38.152ZM29.72 26.568C28.696 27.0373 27.928 27.272 27.416 27.272C26.4347 27.272 25.944 26.632 25.944 25.352V11.4C25.944 4.82933 22.6373 1.544 16.024 1.544C15.7253 1.544 15.4267 1.544 15.128 1.544C14.8293 1.544 14.5093 1.56533 14.168 1.608C11.224 1.90667 8.6 2.93067 6.296 4.68C3.992 6.42933 2.37067 8.968 1.432 12.296L8.6 14.664C9.06933 13.2133 9.70933 12.04 10.52 11.144C11.3733 10.248 12.3333 9.75733 13.4 9.672C13.528 9.672 13.656 9.672 13.784 9.672C13.912 9.62933 14.0187 9.608 14.104 9.608C15.0853 9.608 15.832 9.84266 16.344 10.312C16.856 10.7813 17.112 11.4213 17.112 12.232C17.112 13.128 16.8347 13.8533 16.28 14.408C15.7253 14.92 14.9573 15.4107 13.976 15.88L11.096 17.224C7.81067 18.76 5.31467 20.3813 3.608 22.088C1.944 23.752 1.112 26.0347 1.112 28.936C1.112 34.6533 3.8 37.512 9.176 37.512C9.432 37.512 9.688 37.512 9.944 37.512C10.2 37.512 10.456 37.4907 10.712 37.448C12.76 37.2773 14.5307 36.7867 16.024 35.976C17.5173 35.1653 18.648 34.0133 19.416 32.52C19.7147 33.416 20.3547 34.12 21.336 34.632C22.3173 35.144 23.4693 35.4 24.792 35.4C26.2 35.4 27.544 35.1227 28.824 34.568L29.72 26.568ZM12.504 30.024C11.7787 30.024 11.1813 29.832 10.712 29.448C10.2427 29.0213 10.008 28.424 10.008 27.656C10.008 25.8213 10.9467 24.456 12.824 23.56L14.104 22.92C14.7013 22.6213 15.2773 22.344 15.832 22.088C16.4293 21.7893 16.8773 21.4693 17.176 21.128V25.544C16.9627 26.8667 16.4507 27.9333 15.64 28.744C14.8293 29.512 13.9333 29.9387 12.952 30.024H12.504Z" fill="black"/>
</svg>
